<svg width="37" height="37" viewBox="0 0 37 37" fill="none"
    xmlns="http://www.w3.org/2000/svg">
    <path fill-rule="evenodd" clip-rule="evenodd" fill="currentColor" stroke="none" d="M 18.120665 1.27454 L 15.057887 2.006947 L 14.917714 4.754333 L 16.592781 6.450424 L 15.029853 8.584557 L 9.836448 9.821581 L 11.78485 10.907923 L 14.392066 9.972269 L 13.968042 14.230021 L 9.580632 14.443783 L 9.359859 12.432302 L 11.819894 12.863335 L 9.454476 11.125189 L 10.31654 6.177088 L 8.984898 4.039448 C 8.171894 4.039448 4.741163 8.12549 3.900126 10.094919 L 4.324149 11.759472 L 5.795964 12.719656 L 8.203433 12.516405 L 8.893785 15.029005 L 7.940609 17.40844 C 7.60069 18.862734 7.390431 19.300772 6.861278 19.689754 L 8.701047 19.016922 L 9.776874 16.651505 C 10.544321 17.818445 11.543053 18.789141 12.48922 19.283253 L 10.074741 22.920738 L 8.37164 21.855423 L 10.193889 20.211897 L 7.386926 20.979343 L 3.893117 17.054502 L 2.197026 16.767149 C 1.510178 16.798689 1.457614 16.872278 1.461118 17.74135 L 3.020541 24.424091 C 3.476103 25.356241 3.844057 25.531458 4.954926 25.34573 L 6.153405 24.977776 L 7.684793 22.787575 L 10.116793 23.845879 L 11.37134 26.064114 C 12.296481 27.234558 12.48221 27.60952 12.48221 28.282351 C 12.48221 28.699364 12.499732 28.713383 12.695973 28.426027 L 13.155041 26.975239 C 13.155041 26.232323 12.867686 25.661118 11.960066 24.595802 L 11.63066 24.129728 L 15.860376 23.611088 L 17.030819 27.847815 L 15.099939 28.513636 L 14.987802 26.022064 L 13.82787 28.7274 L 8.890281 28.951675 L 7.064528 30.826488 C 7.457013 31.650003 11.861946 33.906788 13.880435 34.316792 C 14.826602 34.509529 15.187548 34.320297 15.727213 33.349602 L 16.186279 32.000435 L 15.436355 29.670063 L 17.756216 28.397993 L 22.760386 29.337151 C 23.044237 29.596472 23.079281 29.575445 22.960135 29.225014 L 21.19746 27.511398 L 18.926659 27.420288 L 21.134382 23.824852 L 25.2029 25.46838 L 24.558104 27.374731 L 22.497562 25.948471 L 23.906301 28.527653 L 20.80147 32.897541 L 21.176434 35.042187 L 21.782682 35.105267 C 23.100306 34.859962 25.837183 33.63345 27.512247 32.5401 C 29.061157 31.527353 29.218851 31.148886 28.644142 29.80673 L 27.620882 28.503124 L 25.619915 27.798754 L 26.085989 25.240601 L 28.027384 23.44989 C 28.878933 22.395088 29.334496 22.03064 29.919718 21.929014 L 27.743534 21.865936 L 25.987867 23.330744 C 25.798634 22.034143 25.378117 20.856691 24.806911 20.012152 L 28.437389 17.59417 L 29.323982 19.556589 L 27.077711 19.994629 L 29.95476 20.558825 L 31.706923 25.857359 L 33.480106 26.715919 C 34.128407 26.467112 35.333897 22.146282 35.453041 19.633684 L 34.219521 17.688786 C 33.297886 17.40844 32.730183 17.387413 32.267612 17.622204 L 30.536476 18.747089 L 28.808847 16.746122 L 28.633633 11.661352 C 28.822865 11.331945 28.766796 11.317926 28.363798 11.59477 L 27.442162 12.604013 C 27.109251 13.276844 27.116259 13.96369 27.4737 15.302341 L 27.599855 15.842007 L 23.559372 14.464808 L 24.323315 10.193041 L 26.390865 10.638088 L 25.542818 12.684612 C 26.142057 12.621536 26.730783 12.264093 27.112755 11.731438 L 27.582335 10.767748 L 32.765224 12.765213 L 34.590977 11.805029 C 34.590977 10.834332 31.321445 6.597607 29.772533 5.563829 C 29.103209 5.11878 28.73175 5.164339 27.841652 5.795116 L 26.867451 6.783335 L 26.524029 9.243368 L 23.902796 9.352005 L 21.810717 7.911726 C 20.437021 7.228384 20.107616 6.976072 19.827269 6.387346 L 20.174198 8.412844 L 22.40645 9.712948 L 18.786486 12.022297 L 15.912941 8.759773 L 17.503902 7.365051 L 18.541183 9.499186 L 18.478106 6.541538 L 23.173897 3.860733 L 23.625954 1.765144 C 23.282532 1.446251 21.582935 1.228985 19.48735 1.243004 L 18.120665 1.27454 Z M 21.793194 3.114311 L 17.584503 5.640924 L 15.383789 3.534828 L 21.793194 3.114311 Z M 8.904298 6.846413 L 8.171894 11.20579 L 5.182708 11.650839 L 9.002419 6.271704 L 8.904298 6.846413 Z M 28.402346 6.664188 L 32.495396 11.444084 L 27.792595 9.562263 L 28.402346 6.664188 Z M 16.140722 9.593801 L 17.847328 11.773489 L 17.878868 13.956682 L 16.939709 15.288324 C 16.028585 14.864302 15.436355 14.156427 15.071904 13.056072 L 14.977288 10.655611 L 16.140722 9.593801 Z M 23.531338 10.455866 C 24.046473 11.030573 24.067499 11.882122 23.587406 12.852821 C 23.096802 13.844543 22.192686 14.647034 20.973183 15.165672 L 19.970947 15.470549 L 19.830774 13.455564 L 20.931131 11.535194 L 23.531338 10.455866 Z M 12.152804 14.499853 L 15.432849 16.907322 L 15.071904 17.835966 C 13.80334 18.361614 12.01964 17.934088 10.912274 16.840738 L 10.253462 14.906355 C 10.680989 14.499853 11.374845 14.352671 12.152804 14.499853 Z M 25.287003 15.813972 L 27.690968 17.352371 C 27.442162 18.151356 26.555569 18.691021 25.329054 18.789141 C 24.421434 18.862734 23.440226 18.638456 22.501068 18.140842 L 21.60396 17.559124 L 21.957897 16.998434 L 25.287003 15.813972 Z M 18.944181 17.583654 L 19.30863 18.34059 C 19.143927 19.072992 18.06109 19.01342 17.987501 18.266998 C 17.948952 17.846479 18.225794 17.534595 18.639303 17.53109 L 18.944181 17.583654 Z M 33.683357 18.291529 L 32.593513 24.69743 L 31.111185 19.91403 L 33.683357 18.291529 Z M 3.833544 18.880255 L 6.703583 21.978075 L 5.203734 24.606316 L 3.251827 18.214434 L 3.833544 18.880255 Z M 16.053116 19.956081 L 15.664134 21.757301 L 13.708723 23.17305 L 10.915779 23.043388 C 10.723041 22.391586 10.975352 21.687218 11.613139 21.080967 C 12.264942 20.464207 13.046407 20.092751 14.045138 19.931551 L 16.053116 19.956081 Z M 22.378416 20.141809 L 24.028952 21.158064 C 24.848963 21.974571 25.241447 22.871677 25.32555 24.122719 L 25.209908 24.588795 C 24.729816 24.907688 24.007925 24.911192 23.394669 24.599308 L 21.989435 23.365788 C 21.42524 22.598339 21.071302 21.550549 20.976686 20.34506 L 22.378416 20.141809 Z M 18.863581 21.417383 L 19.64855 24.469648 L 17.577496 27.224045 C 16.936203 26.922674 16.578764 26.284887 16.522694 25.349234 C 16.456112 24.238363 16.908169 23.036381 17.794764 21.974571 L 18.863581 21.417383 Z M 25.966841 29.249542 L 27.946783 29.869808 L 22.157644 33.146351 L 25.04871 28.990223 L 25.966841 29.249542 Z M 14.521727 30.71435 L 15.317207 32.736343 L 9.114557 30.248276 L 14.11172 29.904852 L 14.521727 30.71435 Z"/>
</svg>
