<?xml version="1.0" encoding="UTF-8"?>
<svg id="Layer_1" data-name="Layer 1" xmlns="http://www.w3.org/2000/svg" viewBox="0 0 298.62 309.32">
  <path d="M153.56,88.64c0,8.75-1.33,16.84-3.98,24.29-2.66,7.44-6.45,13.93-11.37,19.45-4.93,5.53-10.92,9.86-17.97,13.01-7.05,3.14-14.9,4.72-23.55,4.72h-14.33c-16.99,0-30.18-5.3-39.58-15.89-9.41-10.59-14.1-25.09-14.1-43.51v-41.21h22.98v40.29c0,5.37.6,10.21,1.82,14.5,1.21,4.29,3.15,7.98,5.8,11.05,2.65,3.07,6.14,5.45,10.46,7.14,4.32,1.69,9.59,2.53,15.81,2.53h10.01c6.37,0,11.79-.96,16.27-2.88,4.47-1.92,8.11-4.53,10.92-7.83,2.8-3.3,4.81-7.14,6.03-11.51,1.21-4.37,1.82-9.01,1.82-13.93V26.94h22.98v61.7ZM100.1,23.48h-25.71V0h25.71v23.48Z" style="fill: #231f20;"/>
  <path d="M31.62,253.6c-4.25,0-8.3-.58-12.17-1.73-3.87-1.15-7.24-3.11-10.12-5.87-2.88-2.76-5.16-6.41-6.83-10.94-1.67-4.53-2.5-10.17-2.5-16.92v-107.29h23.2v101.53c0,4.91,1.1,8.79,3.3,11.63,2.2,2.84,5.5,4.26,9.9,4.26h5.23c3.33,0,5,4.07,5,12.2,0,8.75-1.67,13.12-5,13.12h-10.01Z" style="fill: #231f20;"/>
  <path d="M43.68,228.28c5.15,0,9.17-1.04,12.06-3.11,2.88-2.07,4.32-5.49,4.32-10.25v-5.06c0-6.14.87-11.82,2.62-17.04,1.74-5.22,4.28-9.67,7.62-13.35,3.33-3.68,7.39-6.56,12.17-8.63s10.12-3.11,16.04-3.11c6.22,0,11.72,1.04,16.49,3.11s8.76,4.99,11.94,8.75c3.19,3.76,5.61,8.25,7.28,13.47,1.67,5.22,2.5,10.9,2.5,17.04,0,13.81-3.45,24.52-10.35,32.12-6.9,7.6-16.27,11.4-28.1,11.4-6.07,0-11.87-1.19-17.4-3.57-5.54-2.38-9.75-6.18-12.63-11.4-2.88,5.99-6.6,9.98-11.15,11.97-4.55,2-9.03,2.99-13.42,2.99h-2.05c-1.97,0-3.3-1.04-3.98-3.11-.68-2.07-1.02-5.1-1.02-9.09,0-4.45.34-7.75,1.02-9.9.68-2.15,2.01-3.22,3.98-3.22h2.05ZM114.43,211.7c0-5.22-1.18-9.59-3.53-13.12-2.35-3.53-6.56-5.3-12.63-5.3s-9.9,1.73-12.4,5.18c-2.5,3.45-3.75,7.94-3.75,13.47s1.44,9.44,4.32,12.2c2.88,2.76,6.83,4.14,11.83,4.14,10.77,0,16.15-5.53,16.15-16.58Z" style="fill: #231f20;"/>
  <path d="M163.72,284.22c5.76,0,10.73-.81,14.9-2.42,4.17-1.61,7.62-3.8,10.35-6.56,2.73-2.76,4.85-6.03,6.37-9.78,1.51-3.76,2.42-7.71,2.73-11.86h-15.47c-7.89,0-14.33-.84-19.34-2.53-5-1.69-8.95-4.18-11.83-7.48-2.88-3.3-4.89-7.33-6.03-12.09-1.14-4.76-1.71-10.13-1.71-16.12s.83-11.63,2.5-16.92c1.67-5.3,4.13-9.94,7.39-13.93,3.26-3.99,7.32-7.17,12.17-9.55,4.85-2.38,10.46-3.57,16.83-3.57,5.15,0,10.04.85,14.67,2.53,4.62,1.69,8.68,4.37,12.17,8.06,3.49,3.68,6.26,8.44,8.3,14.27,2.05,5.83,3.07,12.97,3.07,21.41v10.59h18.43c3.33,0,5,4.07,5,12.2,0,8.75-1.67,13.12-5,13.12h-18.88c-.31,7.52-1.82,14.66-4.55,21.41-2.73,6.75-6.48,12.66-11.26,17.73s-10.5,9.09-17.18,12.09c-6.68,2.99-14.18,4.49-22.52,4.49h-22.98l-1.37-25.1h23.21ZM165.99,213.77c0,5.37,1.17,9.13,3.53,11.28,2.35,2.15,7.01,3.22,13.99,3.22h15.01v-10.82c0-7.98-1.48-13.58-4.44-16.81-2.96-3.22-7.09-4.83-12.4-4.83-5,0-8.87,1.54-11.6,4.61-2.73,3.07-4.1,7.52-4.1,13.35Z" style="fill: #231f20;"/>
  <path d="M260.18,228.38c10.16,0,15.24-4.99,15.24-14.96v-27.17h23.2v28.78c0,12.74-3.18,22.37-9.55,28.89-6.37,6.53-15.32,9.79-26.84,9.79h-22.98c-1.97,0-3.3-1.04-3.98-3.11s-1.02-5.1-1.02-9.09c0-4.45.34-7.75,1.02-9.9.68-2.15,2.01-3.22,3.98-3.22h20.93ZM275.31,158.9h-23.66v-22.56h23.66v22.56ZM298.62,158.9h-23.66v-22.56h23.66v22.56Z" style="fill: #231f20;"/>
</svg>