<?xml version="1.0" encoding="UTF-8"?>
<svg id="Layer_1" data-name="Layer 1" xmlns="http://www.w3.org/2000/svg" viewBox="0 0 338.06 379.63">
  <path d="M151.91,114.68c-2.58-9.77-5.81-19.17-9.69-28.17s-8.43-18.33-13.67-27.96l26.39-32.57c6.98,11.73,12.58,24.05,16.81,36.97,4.22,12.92,6.34,27.27,6.34,43.04,0,13.47-3.25,25.06-9.74,34.77-6.49,9.7-15.33,17.14-26.5,22.31-11.17,5.17-23.81,7.75-37.91,7.75-19.69,0-35.08-4.66-46.19-13.98s-16.65-23.51-16.65-42.57c0-11.94,1.33-22.66,3.98-32.15,2.65-9.49,6.07-18.57,10.26-27.23l22.31,9.64c-2.37,5.94-4.56,12.18-6.55,18.75-1.99,6.56-2.98,13.23-2.98,20s2.04,12.24,6.13,15.97c4.08,3.73,9.27,6.32,15.55,7.75,6.28,1.43,12.64,2.15,19.06,2.15,8.87,0,17.09-1.29,24.66-3.87,7.57-2.58,13.7-6.11,18.38-10.58ZM96.72,0c4.33,1.54,8.43,3.79,12.31,6.76,3.87,2.97,7.59,6.3,11.15,10-2.72,3.84-5.46,7.7-8.22,11.57-2.76,3.87-5.6,7.8-8.54,11.78-3.42-3.07-7.07-6-10.94-8.8-3.87-2.79-8.01-5.41-12.41-7.85,2.86-3.98,5.67-7.92,8.43-11.83,2.76-3.91,5.5-7.78,8.22-11.62Z" style="fill: #231f20;"/>
  <path d="M36.66,144.1v129.24c2.02,1.89,4.5,3.35,7.44,4.4s6.81,1.57,11.62,1.57h.1v38.75h-.1c-10.54,0-19.11-1.24-25.71-3.72-6.6-2.48-11.66-5.85-15.19-10.11-3.53-4.26-5.94-9.08-7.23-14.45-1.29-5.38-1.94-10.96-1.94-16.76v-40.32c0-12.64-.44-24.84-1.31-36.6-.87-11.76-2.32-22.46-4.35-32.1l36.66-19.9Z" style="fill: #231f20;"/>
  <path d="M127.35,214.26c7.12,0,13.25,2.03,18.38,6.07,5.13,4.05,9.32,9.5,12.57,16.34,3.25,6.84,5.64,14.44,7.17,22.78,1.54,8.34,2.3,16.81,2.3,25.4,0,7.54-.59,14.94-1.78,22.2-5.1,4.54-11.12,7.85-18.07,9.95-6.95,2.09-13.95,3.14-21,3.14s-14.02-1.07-20.68-3.19c-6.67-2.13-12.17-5.29-16.5-9.48l4.08-16.97c-3.63,7.82-8.31,14.37-14.03,19.64-5.73,5.27-13.72,7.91-23.98,7.91-1.47,0-2.57-.58-3.3-1.73s-1.1-3.26-1.1-6.34v-22.62c0-3.07.37-5.18,1.1-6.34s1.83-1.73,3.3-1.73c5.17,0,9.58-1.15,13.25-3.46s6.81-5.31,9.43-9.01c2.62-3.7,4.9-7.68,6.86-11.94,6.84-14.17,13.3-24.49,19.37-30.95,6.07-6.46,13.61-9.69,22.62-9.69ZM126.62,247.04c-5.45,0-10.07,2.48-13.88,7.44-3.81,4.96-7.14,10.65-10,17.07,3.14,2.65,7.19,4.85,12.15,6.6,4.96,1.75,10.3,2.62,16.02,2.62,2.72,0,5.41-.28,8.06-.84,2.65-.56,5.06-1.5,7.23-2.83-.07-4.89-.86-9.62-2.36-14.19-1.5-4.57-3.67-8.36-6.49-11.36-2.83-3-6.41-4.5-10.74-4.5Z" style="fill: #231f20;"/>
  <path d="M214.69,216.04c7.68,0,14.73,2.78,21.16,8.33,6.42,5.55,11.85,13.09,16.29,22.62,4.43,9.53,7.56,20.3,9.37,32.31h11.62v38.75h-10.68c-1.12,11.94-4.07,22.55-8.85,31.84-4.78,9.29-11.35,16.56-19.69,21.84-8.34,5.27-18.49,7.91-30.42,7.91-6.42,0-12.5-.8-18.22-2.41-5.73-1.61-12.36-4.71-19.9-9.32l9.01-21.05c16.41-.21,29.95-2.04,40.63-5.5s19.72-8.82,27.12-16.08c-.07-1.75-.16-3.44-.26-5.08-.1-1.64-.23-3.37-.37-5.18-4.47,1.54-9.43,2.78-14.87,3.72s-11.28,1.41-17.49,1.41c-11.59,0-20.4-2.76-26.44-8.27-6.04-5.51-9.06-14.03-9.06-25.55,0-8.24.94-16.49,2.83-24.77,1.89-8.27,4.59-15.85,8.12-22.73,3.53-6.88,7.84-12.39,12.93-16.55,5.1-4.15,10.82-6.23,17.18-6.23ZM210.08,248.61c-2.86,0-5.45,1.26-7.75,3.77s-4.12,5.67-5.45,9.48c-1.33,3.81-1.99,7.66-1.99,11.57,0,4.75,1.57,7.91,4.71,9.48s7.68,2.36,13.61,2.36c7.89,0,15.43-.66,22.62-1.99-2.37-10.47-5.86-18.87-10.47-25.19-4.61-6.32-9.71-9.48-15.29-9.48Z" style="fill: #231f20;"/>
  <path d="M321.51,190.91c-12.71,0-28.7.8-47.97,2.41-1.12-.98-2.27-1.99-3.46-3.04-1.19-1.05-2.37-2.09-3.56-3.14,1.68-4.19,3.35-8.31,5.03-12.36,1.68-4.05,3.35-8.1,5.03-12.15,17.31-1.47,32.47-2.2,45.45-2.2,10.68,0,16.02,4.19,16.02,12.57,0,5.59-1.57,11.59-4.71,18.01l-11.83-.1ZM273.13,318.05c-1.47,0-2.57-.58-3.3-1.73s-1.1-3.26-1.1-6.34v-22.62c0-3.07.37-5.18,1.1-6.34s1.83-1.73,3.3-1.73h9.11c4.75,0,9.15-.23,13.2-.68,4.05-.45,7.5-1.34,10.37-2.67-1.05-6.14-3-12.71-5.86-19.69-2.86-6.98-6.18-13.86-9.95-20.63l27.54-27.12c4.33,7.19,8.1,16.01,11.31,26.44,3.21,10.44,4.82,20.96,4.82,31.58,0,7.33-1.24,14.65-3.72,21.94-2.48,7.3-5.99,14.44-10.52,21.42-6.14,2.86-12.69,4.94-19.64,6.23-6.95,1.29-14.72,1.94-23.3,1.94h-3.35Z" style="fill: #231f20;"/>
</svg>